<svg width="29" height="23" viewBox="0 0 29 23" fill="none" xmlns="http://www.w3.org/2000/svg">
<path d="M0.276 21.776C0.638667 21.4133 1.11867 20.912 1.716 20.272C2.33467 19.632 2.996 18.928 3.7 18.16C4.42533 17.3707 5.12933 16.6027 5.812 15.856C6.516 15.088 7.13467 14.3947 7.668 13.776C8.22267 13.136 8.628 12.6453 8.884 12.304C9.41733 11.6427 9.92933 10.9813 10.42 10.32C10.9107 9.65867 11.3587 9.008 11.764 8.368C12.1907 7.70667 12.5533 7.06667 12.852 6.448C13.1507 5.82933 13.3853 5.232 13.556 4.656C13.7267 4.08 13.812 3.536 13.812 3.024C13.812 2.55467 13.748 2.16 13.62 1.84C13.5133 1.52 13.3533 1.28533 13.14 1.136C12.948 0.965333 12.7133 0.879999 12.436 0.879999C12.2013 0.879999 11.956 0.943999 11.7 1.072C11.4653 1.17867 11.22 1.33867 10.964 1.552C10.7293 1.744 10.5053 1.97867 10.292 2.256C10.0787 2.53333 9.876 2.832 9.684 3.152C9.27867 3.792 8.90533 4.58133 8.564 5.52C8.22267 6.45867 7.924 7.472 7.668 8.56C7.43333 9.62667 7.23067 10.7253 7.06 11.856C6.91067 12.9867 6.82533 14.0853 6.804 15.152C6.78267 16.2187 6.82533 17.2107 6.932 18.128C7.03867 19.024 7.23067 19.792 7.508 20.432C7.636 20.7093 7.764 20.944 7.892 21.136C8.04133 21.3067 8.19067 21.4453 8.34 21.552C8.51067 21.6373 8.68133 21.68 8.852 21.68C9.00133 21.68 9.19333 21.6373 9.428 21.552C9.66267 21.4667 9.92933 21.328 10.228 21.136C10.548 20.9227 10.9107 20.6347 11.316 20.272C11.7213 19.9093 12.1693 19.4613 12.66 18.928C13.172 18.3947 13.7267 17.7547 14.324 17.008C14.4093 16.9227 14.484 16.88 14.548 16.88C14.6333 16.88 14.708 16.912 14.772 16.976C14.836 17.0187 14.8787 17.0827 14.9 17.168C14.9213 17.232 14.9 17.3067 14.836 17.392C14.2387 18.1387 13.6733 18.8 13.14 19.376C12.628 19.9307 12.148 20.4 11.7 20.784C11.2733 21.168 10.8787 21.4773 10.516 21.712C10.1747 21.9253 9.86533 22.0747 9.588 22.16C9.31067 22.2667 9.06533 22.32 8.852 22.32C8.57467 22.32 8.31867 22.2453 8.084 22.096C7.84933 21.968 7.636 21.7867 7.444 21.552C7.252 21.296 7.07067 20.9973 6.9 20.656C6.62267 19.9947 6.42 19.2053 6.292 18.288C6.18533 17.3493 6.14267 16.336 6.164 15.248C6.20667 14.1387 6.30267 13.0187 6.452 11.888C6.60133 10.736 6.79333 9.616 7.028 8.528C7.284 7.41867 7.58267 6.39467 7.924 5.456C8.26533 4.496 8.628 3.67467 9.012 2.992C9.24667 2.62933 9.492 2.27733 9.748 1.936C10.004 1.59467 10.2707 1.30667 10.548 1.072C10.8253 0.815999 11.124 0.613333 11.444 0.463999C11.764 0.314666 12.0947 0.24 12.436 0.24C12.756 0.24 13.0333 0.304 13.268 0.431999C13.5027 0.559999 13.7053 0.741332 13.876 0.976C14.068 1.21067 14.2067 1.49867 14.292 1.84C14.3987 2.18133 14.452 2.576 14.452 3.024C14.452 3.6 14.3667 4.19733 14.196 4.816C14.0253 5.41333 13.78 6.04267 13.46 6.704C13.14 7.344 12.7667 8.00533 12.34 8.688C11.9133 9.34933 11.444 10.0213 10.932 10.704C10.4413 11.3653 9.92933 12.0267 9.396 12.688C9.11867 13.0293 8.70267 13.52 8.148 14.16C7.61467 14.7787 6.996 15.472 6.292 16.24C5.60933 17.008 4.90533 17.7867 4.18 18.576C3.476 19.3653 2.81467 20.08 2.196 20.72C1.59867 21.36 1.12933 21.8507 0.788 22.192C0.681333 22.2773 0.585333 22.32 0.5 22.32C0.436 22.32 0.372 22.2773 0.308 22.192C0.244 22.128 0.212 22.064 0.212 22C0.190667 21.9147 0.212 21.84 0.276 21.776ZM14.3377 17.008C15.1484 16.0267 15.8951 15.0987 16.5778 14.224C17.2818 13.3493 17.9218 12.5173 18.4978 11.728C19.0951 10.9173 19.6391 10.16 20.1298 9.456C20.6204 8.73067 21.0471 8.05867 21.4098 7.44C21.7724 6.82133 22.0711 6.23467 22.3058 5.68C22.5618 5.12533 22.7538 4.61333 22.8818 4.144C23.0098 3.65333 23.0738 3.19467 23.0738 2.768C23.0738 2.384 23.0098 2.05333 22.8818 1.776C22.7751 1.49867 22.5938 1.28533 22.3378 1.136C22.1031 0.965333 21.8151 0.879999 21.4738 0.879999C21.2818 0.879999 21.0898 0.911999 20.8978 0.976C20.7271 1.01867 20.5564 1.104 20.3858 1.232C20.2151 1.33867 20.0444 1.47733 19.8738 1.648C19.7031 1.79733 19.5218 2 19.3298 2.256C19.0098 2.68267 18.7218 3.22667 18.4658 3.888C18.2098 4.528 17.9751 5.25333 17.7618 6.064C17.5484 6.87467 17.3564 7.71733 17.1858 8.592C17.0364 9.46667 16.9084 10.3413 16.8018 11.216C16.7164 12.0907 16.6418 12.9333 16.5778 13.744C16.5351 14.5333 16.5138 15.248 16.5138 15.888C16.5138 16.8693 16.5671 17.7333 16.6738 18.48C16.7804 19.2053 16.9298 19.824 17.1218 20.336C17.3351 20.8267 17.5698 21.2 17.8258 21.456C18.1031 21.712 18.3911 21.84 18.6898 21.84C19.0098 21.84 19.3298 21.7653 19.6498 21.616C19.9698 21.4453 20.2898 21.1893 20.6098 20.848C20.9511 20.5067 21.3031 20.0907 21.6658 19.6C21.9218 19.2373 22.1671 18.832 22.4018 18.384C22.6364 17.936 22.8391 17.456 23.0098 16.944C23.1804 16.432 23.3084 15.888 23.3938 15.312C23.4791 14.736 23.5218 14.1493 23.5218 13.552C23.5218 13.2533 23.4898 12.9333 23.4258 12.592C23.3618 12.2293 23.2551 11.92 23.1058 11.664C22.9778 11.3867 22.8178 11.248 22.6258 11.248C22.5618 11.248 22.5084 11.3013 22.4658 11.408C22.4231 11.4933 22.3911 11.632 22.3698 11.824C22.3484 11.9947 22.3378 12.2187 22.3378 12.496C22.3378 13.008 22.4124 13.552 22.5618 14.128C22.7111 14.6827 22.9031 15.2267 23.1378 15.76C23.3938 16.272 23.6711 16.7413 23.9698 17.168C24.2898 17.5947 24.6204 17.936 24.9618 18.192C25.3031 18.4267 25.6444 18.544 25.9858 18.544C26.1138 18.544 26.2418 18.5333 26.3698 18.512C26.5191 18.4693 26.6578 18.4053 26.7858 18.32C26.9351 18.2347 27.0844 18.128 27.2338 18C27.4044 17.872 27.5751 17.7227 27.7458 17.552C27.9164 17.3813 28.0978 17.1893 28.2898 16.976C28.3538 16.8907 28.4284 16.8587 28.5138 16.88C28.5991 16.88 28.6738 16.912 28.7378 16.976C28.8018 17.0187 28.8444 17.0827 28.8658 17.168C28.8871 17.2533 28.8551 17.328 28.7698 17.392C28.5778 17.6267 28.3858 17.84 28.1938 18.032C28.0018 18.224 27.8098 18.3947 27.6178 18.544C27.4471 18.672 27.2658 18.7893 27.0738 18.896C26.9031 18.9813 26.7218 19.056 26.5298 19.12C26.3591 19.1627 26.1778 19.184 25.9858 19.184C25.5378 19.184 25.1004 19.0453 24.6738 18.768C24.2684 18.4907 23.8844 18.128 23.5218 17.68C23.1591 17.2107 22.8391 16.6773 22.5618 16.08C22.2844 15.4827 22.0711 14.8853 21.9218 14.288C21.7724 13.6693 21.6978 13.072 21.6978 12.496C21.6978 12.0907 21.7404 11.7707 21.8258 11.536C21.9324 11.28 22.0498 11.0987 22.1778 10.992C22.3058 10.864 22.4444 10.8 22.5938 10.8C22.9564 10.8 23.2551 10.9493 23.4898 11.248C23.7244 11.5467 23.8951 11.9093 24.0017 12.336C24.1084 12.7627 24.1618 13.168 24.1618 13.552C24.1618 14.192 24.1084 14.8107 24.0017 15.408C23.9164 16.0053 23.7778 16.5813 23.5858 17.136C23.4151 17.6693 23.2124 18.1813 22.9778 18.672C22.7431 19.1413 22.4764 19.5787 22.1778 19.984C21.8151 20.496 21.4418 20.944 21.0578 21.328C20.6951 21.6907 20.3111 21.968 19.9058 22.16C19.5218 22.3733 19.1164 22.48 18.6898 22.48C18.2418 22.48 17.8471 22.3307 17.5058 22.032C17.1644 21.7333 16.8658 21.296 16.6098 20.72C16.3751 20.144 16.1938 19.4507 16.0658 18.64C15.9378 17.8293 15.8738 16.912 15.8738 15.888C15.8738 15.2267 15.8951 14.4907 15.9378 13.68C16.0018 12.8693 16.0764 12.0267 16.1618 11.152C16.2684 10.256 16.3964 9.36 16.5458 8.464C16.7164 7.568 16.9084 6.704 17.1218 5.872C17.3351 5.04 17.5804 4.28267 17.8578 3.6C18.1564 2.91733 18.4764 2.34133 18.8177 1.872C19.0098 1.616 19.2124 1.392 19.4258 1.2C19.6391 0.986666 19.8524 0.815999 20.0658 0.688C20.3004 0.538666 20.5351 0.431999 20.7698 0.367998C21.0044 0.282666 21.2391 0.24 21.4738 0.24C21.9218 0.24 22.3164 0.346666 22.6578 0.559999C22.9991 0.773333 23.2551 1.072 23.4258 1.456C23.6178 1.81867 23.7138 2.256 23.7138 2.768C23.7138 3.19467 23.6604 3.632 23.5538 4.08C23.4684 4.528 23.3191 4.99733 23.1058 5.488C22.9138 5.97867 22.6684 6.50133 22.3698 7.056C22.0924 7.58933 21.7618 8.15467 21.3778 8.752C20.9938 9.34933 20.5671 9.97867 20.0978 10.64C19.6498 11.3013 19.1484 11.9947 18.5938 12.72C18.0391 13.424 17.4418 14.1707 16.8018 14.96C16.1831 15.728 15.5324 16.5387 14.8498 17.392C14.7858 17.4773 14.7111 17.52 14.6258 17.52C14.5404 17.52 14.4657 17.4987 14.4017 17.456C14.3377 17.392 14.2951 17.3173 14.2737 17.232C14.2524 17.1467 14.2737 17.072 14.3377 17.008Z" fill="#F5F5F2" style="fill:#F5F5F2;fill:color(display-p3 0.9608 0.9608 0.9490);fill-opacity:1;"/>
</svg>
